<?xml version="1.0" encoding="UTF-8"?>
<svg id="Layer_1" data-name="Layer 1" xmlns="http://www.w3.org/2000/svg" version="1.1" viewBox="0 0 90.91 99.02">
  <defs>
    <style>
      .cls-1 {
        fill: #008082;
      }

      .cls-1, .cls-2 {
        stroke-width: 0px;
      }

      .cls-2 {
        fill: #fff;
      }
    </style>
  </defs>
  <path class="cls-2" d="M90.91,45.45C90.91,20.35,70.56,0,45.45,0S0,20.35,0,45.45c0,21.63,15.12,39.72,35.36,44.31.7.16.1.02.1.02l9.99,9.23,9.64-9.16s-.35.08.3-.07c20.32-4.53,35.52-22.66,35.52-44.35Z"/>
  <circle class="cls-1" cx="45.45" cy="45.45" r="40.24" transform="translate(-18.83 45.45) rotate(-45)"/>
  <path class="cls-2" d="M32.63,43.69v-10.26c0-.89.72-1.6,1.6-1.6h8.02v-3.21h6.41v3.21h8.02c.89,0,1.6.72,1.6,1.6v10.26l1.74.52c.82.25,1.3,1.09,1.09,1.92l-2.43,9.73c-.13,0-.27,0-.4,0-.93,0-1.82-.16-2.65-.45l2-8.58-12.19-3.8-12.19,3.8,2,8.58c-.83.29-1.72.45-2.65.45-.14,0-.27,0-.4,0l-2.43-9.73c-.21-.83.27-1.68,1.09-1.92l1.74-.52ZM35.83,42.73l9.62-2.89,9.62,2.89v-7.7h-19.24v7.7ZM32.63,59.08c2.46,0,4.71-.93,6.41-2.45,1.7,1.52,3.95,2.45,6.41,2.45s4.71-.93,6.41-2.45c1.7,1.52,3.95,2.45,6.41,2.45h3.21v3.21h-3.21c-2.34,0-4.53-.62-6.41-1.72-1.89,1.09-4.08,1.72-6.41,1.72s-4.53-.62-6.41-1.72c-1.89,1.09-4.08,1.72-6.41,1.72h-3.21v-3.21h3.21Z"/>
</svg>